<?xml version="1.0" encoding="utf-8"?>
<svg width="163.414" height="36" viewBox="0 0 163.414 36" fill="none" xmlns="http://www.w3.org/2000/svg">
  <g>
    <g>
      <path d="M18 36C15.6362 36 13.2956 35.5343 11.1117 34.6298C8.92784 33.7252 6.94354 32.3995 5.27207 30.728C3.60063 29.0565 2.27475 27.0722 1.37017 24.8882C0.465581 22.7045 0 20.3638 0 18C0 15.6362 0.465583 13.2956 1.37017 11.1117C2.27475 8.92784 3.60063 6.94354 5.27207 5.27207C6.94354 3.60063 8.92784 2.27475 11.1117 1.37017C13.2956 0.465584 15.6362 0 18 0C18 0 18 9 18 9C16.8181 9 15.6478 9.23279 14.5558 9.68508C13.4639 10.1374 12.4718 10.8003 11.636 11.636C10.8003 12.4718 10.1374 13.4639 9.68508 14.5558C9.2328 15.6478 9 16.8181 9 18C9 19.1819 9.2328 20.3522 9.68508 21.4441C10.1374 22.536 10.8003 23.5282 11.636 24.3639C12.4718 25.1996 13.4639 25.8626 14.5558 26.3149C15.6478 26.7673 16.8181 27 18 27C18 27 18 36 18 36Z" fill="#0056D2" fill-rule="evenodd" />
      <path d="M18 0C18 0 18 9 18 9C18 9 4.50001 9 4.50001 9C2.01439 9 0 6.98562 0 4.5C0 4.5 0 4.5 0 4.5C0 2.01438 2.01439 0 4.50001 0C4.50001 0 18 0 18 0C18 0 18 0 18 0Z" fill="#0056D2" fill-rule="evenodd" transform="translate(13.41 13.5)" />
      <rect width="13.5" height="9" fill="#0056D2" fill-rule="evenodd" transform="translate(18 27)" />
      <rect width="9" height="9" fill="#808080" fill-rule="evenodd" transform="translate(22.41 0)" />
    </g>
    <path d="M3.8147e-06 32.5113L3.8147e-06 0.438499C3.8147e-06 0.438499 11.4635 0.438499 11.4635 0.438499C14.6895 0.438499 17.4693 1.07797 19.8028 2.35692C22.1362 3.63586 23.9293 5.47073 25.1821 7.86154C26.4349 10.2524 27.0613 13.1131 27.0613 16.4436C27.0613 19.7845 26.4323 22.6556 25.1743 25.0568C23.9163 27.4581 22.1153 29.3008 19.7715 30.5849C17.4275 31.8692 14.6269 32.5113 11.3695 32.5113C11.3695 32.5113 3.8147e-06 32.5113 3.8147e-06 32.5113ZM6.78099 26.7013C6.78099 26.7013 11.0876 26.7013 11.0876 26.7013C14.1048 26.7013 16.3939 25.8869 17.9547 24.2581C19.5155 22.6295 20.296 20.0247 20.296 16.4436C20.296 12.8834 19.5155 10.2942 17.9547 8.67587C16.3939 7.05767 14.1101 6.24856 11.1033 6.24856C11.1033 6.24856 6.78099 6.24856 6.78099 6.24856C6.78099 6.24856 6.78099 26.7013 6.78099 26.7013ZM61.5458 16.4749C61.5458 19.9724 60.8854 22.9479 59.5647 25.4013C58.244 27.8548 56.4509 29.7263 54.1853 31.0157C51.9198 32.3051 49.3671 32.9498 46.5273 32.9498C43.6771 32.9498 41.1193 32.3025 38.8538 31.0078C36.5882 29.7132 34.7977 27.8366 33.4822 25.3779C32.1667 22.9192 31.5089 19.9516 31.5089 16.4749C31.5089 12.9774 32.1667 10.0019 33.4822 7.54838C34.7977 5.09489 36.5882 3.22346 38.8538 1.93408C41.1193 0.644706 43.6771 1.16825e-05 46.5273 0C49.3671 1.16825e-05 51.9198 0.644706 54.1853 1.93408C56.4509 3.22346 58.244 5.09489 59.5647 7.54838C60.8854 10.0019 61.5458 12.9774 61.5458 16.4749ZM54.6707 16.4749C54.6707 13.0713 53.9295 10.4743 52.447 8.68378C50.9645 6.89325 48.9913 5.99798 46.5274 5.99798C44.0634 5.99798 42.0902 6.89325 40.6077 8.68378C39.1251 10.4743 38.3838 13.0713 38.3838 16.4749C38.3838 19.868 39.1251 22.4624 40.6077 24.2581C42.0902 26.0539 44.0634 26.9518 46.5274 26.9518C48.9913 26.9518 50.9645 26.0539 52.447 24.2581C53.9295 22.4624 54.6707 19.868 54.6707 16.4749ZM66.5573 32.5113C66.5573 32.5113 66.5573 0.438499 66.5573 0.438499C66.5573 0.438499 79.2109 0.438499 79.2109 0.438499C82.8546 0.438499 85.6813 1.38857 87.6911 3.28871C89.7009 5.18886 90.7057 7.7311 90.7057 10.9154C90.7057 13.1078 90.2176 14.9819 89.2414 16.5375C88.2652 18.0931 86.8636 19.2624 85.0366 20.0454C85.0366 20.0454 91.8489 32.5113 91.8489 32.5113L84.3633 32.5113L78.287 21.1418L73.3382 21.1418L73.3382 32.5113C73.3382 32.5113 66.5573 32.5113 66.5573 32.5113ZM73.3382 15.6919C73.3382 15.6919 77.9424 15.6919 77.9424 15.6919C81.7948 15.6919 83.7211 14.0998 83.7211 10.9154C83.7211 7.62669 81.7844 5.98232 77.9111 5.98232C77.9111 5.98232 73.3382 5.98232 73.3382 5.98232C73.3382 5.98232 73.3382 15.6919 73.3382 15.6919ZM101.026 32.5113C101.026 32.5113 93.7594 32.5113 93.7594 32.5113L104.832 0.438499L113.57 0.438499L124.626 32.5113L117.36 32.5113L114.979 25.1977L103.406 25.1977C103.406 25.1977 101.026 32.5113 101.026 32.5113ZM105.129 19.9044C105.129 19.9044 113.273 19.9044 113.273 19.9044L109.326 7.76763L109.075 7.76763C109.075 7.76763 105.129 19.9044 105.129 19.9044Z" fill="#0056D2" transform="translate(38.788 1.571)" />
  </g>
</svg>